PathFileType	4	(X/Y/Z)	./resultDataOpenSim/trcMotMarkerGrf/sub09/qtm-15-04.trc
DataRate	CameraRate	NumFrames	NumMarkers	Units	OrigDataRate	OrigDataStartFrame	OrigNumFrames
250.000000	250.000000	6	24	m	250.000000	61	484
Frame#	Time	L.Toe.Tip			R.Toe.Tip			L.Ankle.Lat			R.Ankle.Lat			L.Ankle.Med			R.Ankle.Med			L.Heel			R.Heel			L.Knee.Lat			R.Knee.Lat			L.Knee.Med			R.Knee.Med			L.Thigh.Upper			R.Thigh.Upper			L.ASIS			R.ASIS			V.Sacral			L.Acromium			R.Acromium			C7			L.Elbow			R.Elbow			L.Wrist.Lat			R.Wrist.Lat
		X1	Y1	Z1	X2	Y2	Z2	X3	Y3	Z3	X4	Y4	Z4	X5	Y5	Z5	X6	Y6	Z6	X7	Y7	Z7	X8	Y8	Z8	X9	Y9	Z9	X10	Y10	Z10	X11	Y11	Z11	X12	Y12	Z12	X13	Y13	Z13	X14	Y14	Z14	X15	Y15	Z15	X16	Y16	Z16	X17	Y17	Z17	X18	Y18	Z18	X19	Y19	Z19	X20	Y20	Z20	X21	Y21	Z21	X22	Y22	Z22	X23	Y23	Z23	X24	Y24	Z24

61	0.24	-1.4304848	0.080280007	-0.049140079	-0.66983154	0.039728344	0.092107841	-1.4459614	0.23413652	-0.099415708	-0.81637912	0.053090559	0.12057362	-1.4252783	0.22191777	-0.0040104185	-0.80898314	0.090780243	0.030416588	-1.5064283	0.28292086	-0.053936644	-0.88528074	0.032045546	0.070133106	-1.0766908	0.42319662	-0.12301665	-0.79248938	0.50727885	0.1757675	-1.0616657	0.40985572	0.0020534089	-0.80896038	0.49422602	0.05025779	-1.0275139	0.82904021	-0.13770082	-0.99871913	0.85954108	0.2342906	-0.9351779	0.91658769	-0.085304447	-0.92623203	0.94543896	0.15446678	-1.0954501	0.98464941	0.040788188	-0.92501046	1.3873235	-0.1163856	-0.95522914	1.3854285	0.21029951	-1.0027575	1.4364256	0.044131833	-1.0600701	1.0414888	-0.21618631	-1.0982092	1.046318	0.27111477	-0.83195976	0.89390389	-0.18035853	-0.96670562	0.80800579	0.30477981
62	0.244	-1.4185328	0.083339033	-0.050731908	-0.66982056	0.039717447	0.092000278	-1.4340333	0.23756197	-0.099221752	-0.81655961	0.053083911	0.12084525	-1.4121356	0.22484653	-0.0041699824	-0.80877361	0.090765329	0.03037419	-1.4941882	0.28616396	-0.053246374	-0.88564204	0.032219917	0.0699958	-1.0633764	0.42324183	-0.12276169	-0.78908241	0.50771406	0.17638398	-1.048885	0.41012177	0.0028159455	-0.80579129	0.49409828	0.050236316	-1.0212366	0.82950021	-0.13748786	-0.99150636	0.86062254	0.23483489	-0.92939194	0.91754637	-0.085018185	-0.91961718	0.94635746	0.15482371	-1.0893762	0.98583972	0.041441775	-0.91881146	1.3881502	-0.11628204	-0.94850354	1.3864526	0.21047497	-0.9963871	1.4375729	0.044492961	-1.0549918	1.0426591	-0.21510726	-1.0911367	1.0469512	0.27114768	-0.82841688	0.89273512	-0.18006439	-0.95806458	0.80911777	0.30427016
63	0.248	-1.4059512	0.086236804	-0.052229869	-0.66981188	0.039719117	0.091872117	-1.4218119	0.2407184	-0.09898002	-0.81668398	0.053133095	0.1209998	-1.3983263	0.22755319	-0.0044436912	-0.8085626	0.090759275	0.030320897	-1.4819216	0.28897209	-0.052467955	-0.88597516	0.032372312	0.069875643	-1.0500604	0.4234433	-0.12219745	-0.7852475	0.50757535	0.17621236	-1.0367281	0.41050846	0.0036681129	-0.80285607	0.49396535	0.050246114	-1.0150298	0.83010887	-0.1372689	-0.98437199	0.8618297	0.23537182	-0.92355998	0.91860152	-0.084792843	-0.91297702	0.94738906	0.15506879	-1.0833747	0.98712759	0.042025433	-0.91279684	1.3890503	-0.11624301	-0.94176078	1.3875673	0.21061417	-0.9900578	1.4387896	0.044854229	-1.0499195	1.0438545	-0.2140353	-1.0840908	1.047648	0.27106409	-0.82493388	0.89159643	-0.17981192	-0.94940945	0.81035099	0.30373817
64	0.252	-1.3928402	0.088913099	-0.05362185	-0.66982441	0.039726235	0.091751906	-1.4092973	0.24357198	-0.098705	-0.81676446	0.053236131	0.12107325	-1.3848742	0.22986714	-0.0045183537	-0.80836703	0.090756901	0.030261014	-1.4696353	0.29135284	-0.051644281	-0.88625717	0.032491374	0.069782335	-1.0368533	0.42384658	-0.12141784	-0.78083879	0.50674275	0.17511218	-1.0250707	0.4109628	0.0046521217	-0.80013482	0.49382277	0.050276745	-1.0087919	0.83091888	-0.13690136	-0.97803093	0.86313418	0.23580004	-0.91766185	0.91975883	-0.084609309	-0.90621323	0.94854509	0.15522157	-1.0773909	0.98853344	0.04258492	-0.90688954	1.3900325	-0.11624334	-0.93500835	1.3887618	0.21071784	-0.98376299	1.4400681	0.045203733	-1.0448674	1.0450775	-0.21299462	-1.07696	1.0484035	0.27115787	-0.82151453	0.89049406	-0.17960644	-0.94075201	0.81171373	0.30318311
65	0.256	-1.379277	0.091310042	-0.054913624	-0.66987786	0.039744927	0.091669443	-1.3964982	0.24610401	-0.0984035	-0.81685296	0.053375091	0.12113213	-1.3721918	0.23178092	-0.0042735509	-0.808193	0.090752909	0.030204065	-1.457276	0.29332009	-0.05084211	-0.88647256	0.032567846	0.069720679	-1.0237226	0.42452708	-0.12066747	-0.77655106	0.50567412	0.17387947	-1.0135159	0.41146039	0.0057448738	-0.79754697	0.49368676	0.050344565	-1.002471	0.83194739	-0.13629257	-0.9729388	0.86449754	0.23604332	-0.91176941	0.92101446	-0.084460147	-0.89932054	0.94982156	0.15530907	-1.0714413	0.99001094	0.043100379	-0.90102882	1.3910922	-0.11626182	-0.92827397	1.3900241	0.21080403	-0.97749468	1.4414012	0.045528052	-1.0398316	1.0463363	-0.2119672	-1.0697448	1.0492384	0.27159339	-0.81815681	0.88943339	-0.17944081	-0.93211478	0.8131968	0.30260948
66	0.26	-1.3653225	0.093400737	-0.056116862	-0.66997423	0.039782357	0.09162823	-1.3834234	0.24830595	-0.098082004	-0.81695933	0.05352682	0.12120666	-1.3600951	0.23338011	-0.003762107	-0.80803802	0.090744093	0.030156004	-1.4447842	0.29489605	-0.050147541	-0.88662186	0.03259731	0.069686519	-1.0106195	0.42551553	-0.12008806	-0.77325851	0.50506862	0.17345745	-1.0019946	0.41203654	0.0068855447	-0.79500759	0.49357962	0.0504788	-0.99611348	0.83314723	-0.13550115	-0.96867165	0.86591983	0.23614386	-0.90596759	0.92236156	-0.084338277	-0.89242175	0.95120148	0.15535423	-1.065571	0.99149984	0.043529596	-0.89519978	1.3922191	-0.11629008	-0.92158274	1.3913513	0.21089042	-0.97125278	1.442782	0.045820814	-1.0347906	1.0476509	-0.21091101	-1.0625622	1.050181	0.2722463	-0.81485649	0.88841963	-0.1793005	-0.92352888	0.81478461	0.30201761
